HIERARCHY
ROOT Hips
{
  OFFSET 0.00 0.00 0.00
  CHANNELS 6 Xposition Yposition Zposition Zrotation Xrotation Yrotation
  JOINT Spine
  {
    OFFSET 0.00 12.00 0.00
    CHANNELS 3 Zrotation Xrotation Yrotation
    JOINT Chest
    {
      OFFSET 0.00 14.00 0.00
      CHANNELS 3 Zrotation Xrotation Yrotation
      JOINT Neck
      {
        OFFSET 0.00 18.00 0.00
        CHANNELS 3 Zrotation Xrotation Yrotation
        JOINT Head
        {
          OFFSET 0.00 8.00 0.00
          CHANNELS 3 Zrotation Xrotation Yrotation
          End Site
          {
            OFFSET 0.00 10.00 0.00
          }
        }
      }
      JOINT LeftUpperArm
      {
        OFFSET 8.00 14.00 0.00
        CHANNELS 3 Zrotation Xrotation Yrotation
        JOINT LeftForearm
        {
          OFFSET 0.00 -26.00 0.00
          CHANNELS 3 Zrotation Xrotation Yrotation
          JOINT LeftHand
          {
            OFFSET 0.00 -24.00 0.00
            CHANNELS 3 Zrotation Xrotation Yrotation
            End Site
            {
              OFFSET 0.00 -8.00 0.00
            }
          }
        }
      }
      JOINT RightUpperArm
      {
        OFFSET -8.00 14.00 0.00
        CHANNELS 3 Zrotation Xrotation Yrotation
        JOINT RightForearm
        {
          OFFSET 0.00 -26.00 0.00
          CHANNELS 3 Zrotation Xrotation Yrotation
          JOINT RightHand
          {
            OFFSET 0.00 -24.00 0.00
            CHANNELS 3 Zrotation Xrotation Yrotation
            End Site
            {
              OFFSET 0.00 -8.00 0.00
            }
          }
        }
      }
    }
  }
  JOINT LeftThigh
  {
    OFFSET 9.00 0.00 0.00
    CHANNELS 3 Zrotation Xrotation Yrotation
    JOINT LeftShin
    {
      OFFSET 0.00 -42.00 0.00
      CHANNELS 3 Zrotation Xrotation Yrotation
      JOINT LeftFoot
      {
        OFFSET 0.00 -40.00 0.00
        CHANNELS 3 Zrotation Xrotation Yrotation
        End Site
        {
          OFFSET 0.00 -6.00 0.00
        }
      }
    }
  }
  JOINT RightThigh
  {
    OFFSET -9.00 0.00 0.00
    CHANNELS 3 Zrotation Xrotation Yrotation
    JOINT RightShin
    {
      OFFSET 0.00 -42.00 0.00
      CHANNELS 3 Zrotation Xrotation Yrotation
      JOINT RightFoot
      {
        OFFSET 0.00 -40.00 0.00
        CHANNELS 3 Zrotation Xrotation Yrotation
        End Site
        {
          OFFSET 0.00 -6.00 0.00
        }
      }
    }
  }
}

MOTION
Frames: 20
Frame Time: 0.033333
0.0000 78.0000 0.0000 0.0000 0.0000 0.0000 0.0000 6.0000 0.0000 0.0000 2.0000 0.0000 0.0000 0.0000 0.0000 0.0000 0.0000 0.0000 0.0000 -40.0000 0.0000 0.0000 -15.0000 0.0000 0.0000 0.0000 0.0000 0.0000 -40.0000 0.0000 0.0000 -15.0000 0.0000 0.0000 0.0000 0.0000 0.0000 -30.8619 0.0000 0.0000 56.8777 0.0000 0.0000 -26.0158 0.0000 0.0000 -30.8619 0.0000 0.0000 56.8777 0.0000 0.0000 -26.0158 0.0000
0.0000 76.3275 0.0000 0.0000 0.0000 0.0000 0.0000 6.0000 0.0000 0.0000 2.0000 0.0000 0.0000 0.0000 0.0000 0.0000 0.0000 0.0000 0.0000 -40.0000 0.0000 0.0000 -15.0000 0.0000 0.0000 0.0000 0.0000 0.0000 -40.0000 0.0000 0.0000 -15.0000 0.0000 0.0000 0.0000 0.0000 0.0000 -33.2235 0.0000 0.0000 61.6026 0.0000 0.0000 -28.3790 0.0000 0.0000 -33.2235 0.0000 0.0000 61.6026 0.0000 0.0000 -28.3790 0.0000
0.0000 74.6734 0.0000 0.0000 0.0000 0.0000 0.0000 6.0000 0.0000 0.0000 2.0000 0.0000 0.0000 0.0000 0.0000 0.0000 0.0000 0.0000 0.0000 -40.0000 0.0000 0.0000 -15.0000 0.0000 0.0000 0.0000 0.0000 0.0000 -40.0000 0.0000 0.0000 -15.0000 0.0000 0.0000 0.0000 0.0000 0.0000 -35.4134 0.0000 0.0000 65.9738 0.0000 0.0000 -30.5604 0.0000 0.0000 -35.4134 0.0000 0.0000 65.9738 0.0000 0.0000 -30.5604 0.0000
0.0000 73.0557 0.0000 0.0000 0.0000 0.0000 0.0000 6.0000 0.0000 0.0000 2.0000 0.0000 0.0000 0.0000 0.0000 0.0000 0.0000 0.0000 0.0000 -40.0000 0.0000 0.0000 -15.0000 0.0000 0.0000 0.0000 0.0000 0.0000 -40.0000 0.0000 0.0000 -15.0000 0.0000 0.0000 0.0000 0.0000 0.0000 -37.4416 0.0000 0.0000 70.0130 0.0000 0.0000 -32.5714 0.0000 0.0000 -37.4416 0.0000 0.0000 70.0130 0.0000 0.0000 -32.5714 0.0000
0.0000 71.4922 0.0000 0.0000 0.0000 0.0000 0.0000 6.0000 0.0000 0.0000 2.0000 0.0000 0.0000 0.0000 0.0000 0.0000 0.0000 0.0000 0.0000 -40.0000 0.0000 0.0000 -15.0000 0.0000 0.0000 0.0000 0.0000 0.0000 -40.0000 0.0000 0.0000 -15.0000 0.0000 0.0000 0.0000 0.0000 0.0000 -39.3133 0.0000 0.0000 73.7322 0.0000 0.0000 -34.4189 0.0000 0.0000 -39.3133 0.0000 0.0000 73.7322 0.0000 0.0000 -34.4189 0.0000
0.0000 70.0000 0.0000 0.0000 0.0000 0.0000 0.0000 6.0000 0.0000 0.0000 2.0000 0.0000 0.0000 0.0000 0.0000 0.0000 0.0000 0.0000 0.0000 -40.0000 0.0000 0.0000 -15.0000 0.0000 0.0000 0.0000 0.0000 0.0000 -40.0000 0.0000 0.0000 -15.0000 0.0000 0.0000 0.0000 0.0000 0.0000 -41.0307 0.0000 0.0000 77.1371 0.0000 0.0000 -36.1064 0.0000 0.0000 -41.0307 0.0000 0.0000 77.1371 0.0000 0.0000 -36.1064 0.0000
0.0000 68.5954 0.0000 0.0000 0.0000 0.0000 0.0000 6.0000 0.0000 0.0000 2.0000 0.0000 0.0000 0.0000 0.0000 0.0000 0.0000 0.0000 0.0000 -40.0000 0.0000 0.0000 -15.0000 0.0000 0.0000 0.0000 0.0000 0.0000 -40.0000 0.0000 0.0000 -15.0000 0.0000 0.0000 0.0000 0.0000 0.0000 -42.5940 0.0000 0.0000 80.2297 0.0000 0.0000 -37.6357 0.0000 0.0000 -42.5940 0.0000 0.0000 80.2297 0.0000 0.0000 -37.6357 0.0000
0.0000 67.2939 0.0000 0.0000 0.0000 0.0000 0.0000 6.0000 0.0000 0.0000 2.0000 0.0000 0.0000 0.0000 0.0000 0.0000 0.0000 0.0000 0.0000 -40.0000 0.0000 0.0000 -15.0000 0.0000 0.0000 0.0000 0.0000 0.0000 -40.0000 0.0000 0.0000 -15.0000 0.0000 0.0000 0.0000 0.0000 0.0000 -44.0020 0.0000 0.0000 83.0092 0.0000 0.0000 -39.0072 0.0000 0.0000 -44.0020 0.0000 0.0000 83.0092 0.0000 0.0000 -39.0072 0.0000
0.0000 66.1097 0.0000 0.0000 0.0000 0.0000 0.0000 6.0000 0.0000 0.0000 2.0000 0.0000 0.0000 0.0000 0.0000 0.0000 0.0000 0.0000 0.0000 -40.0000 0.0000 0.0000 -15.0000 0.0000 0.0000 0.0000 0.0000 0.0000 -40.0000 0.0000 0.0000 -15.0000 0.0000 0.0000 0.0000 0.0000 0.0000 -45.2529 0.0000 0.0000 85.4735 0.0000 0.0000 -40.2206 0.0000 0.0000 -45.2529 0.0000 0.0000 85.4735 0.0000 0.0000 -40.2206 0.0000
0.0000 65.0557 0.0000 0.0000 0.0000 0.0000 0.0000 6.0000 0.0000 0.0000 2.0000 0.0000 0.0000 0.0000 0.0000 0.0000 0.0000 0.0000 0.0000 -40.0000 0.0000 0.0000 -15.0000 0.0000 0.0000 0.0000 0.0000 0.0000 -40.0000 0.0000 0.0000 -15.0000 0.0000 0.0000 0.0000 0.0000 0.0000 -46.3441 0.0000 0.0000 87.6192 0.0000 0.0000 -41.2750 0.0000 0.0000 -46.3441 0.0000 0.0000 87.6192 0.0000 0.0000 -41.2750 0.0000
0.0000 64.1436 0.0000 0.0000 0.0000 0.0000 0.0000 6.0000 0.0000 0.0000 2.0000 0.0000 0.0000 0.0000 0.0000 0.0000 0.0000 0.0000 0.0000 -40.0000 0.0000 0.0000 -15.0000 0.0000 0.0000 0.0000 0.0000 0.0000 -40.0000 0.0000 0.0000 -15.0000 0.0000 0.0000 0.0000 0.0000 0.0000 -47.2732 0.0000 0.0000 89.4428 0.0000 0.0000 -42.1696 0.0000 0.0000 -47.2732 0.0000 0.0000 89.4428 0.0000 0.0000 -42.1696 0.0000
0.0000 63.3833 0.0000 0.0000 0.0000 0.0000 0.0000 6.0000 0.0000 0.0000 2.0000 0.0000 0.0000 0.0000 0.0000 0.0000 0.0000 0.0000 0.0000 -40.0000 0.0000 0.0000 -15.0000 0.0000 0.0000 0.0000 0.0000 0.0000 -40.0000 0.0000 0.0000 -15.0000 0.0000 0.0000 0.0000 0.0000 0.0000 -48.0375 0.0000 0.0000 90.9406 0.0000 0.0000 -42.9032 0.0000 0.0000 -48.0375 0.0000 0.0000 90.9406 0.0000 0.0000 -42.9032 0.0000
0.0000 62.7831 0.0000 0.0000 0.0000 0.0000 0.0000 6.0000 0.0000 0.0000 2.0000 0.0000 0.0000 0.0000 0.0000 0.0000 0.0000 0.0000 0.0000 -40.0000 0.0000 0.0000 -15.0000 0.0000 0.0000 0.0000 0.0000 0.0000 -40.0000 0.0000 0.0000 -15.0000 0.0000 0.0000 0.0000 0.0000 0.0000 -48.6346 0.0000 0.0000 92.1095 0.0000 0.0000 -43.4749 0.0000 0.0000 -48.6346 0.0000 0.0000 92.1095 0.0000 0.0000 -43.4749 0.0000
0.0000 62.3496 0.0000 0.0000 0.0000 0.0000 0.0000 6.0000 0.0000 0.0000 2.0000 0.0000 0.0000 0.0000 0.0000 0.0000 0.0000 0.0000 0.0000 -40.0000 0.0000 0.0000 -15.0000 0.0000 0.0000 0.0000 0.0000 0.0000 -40.0000 0.0000 0.0000 -15.0000 0.0000 0.0000 0.0000 0.0000 0.0000 -49.0627 0.0000 0.0000 92.9465 0.0000 0.0000 -43.8838 0.0000 0.0000 -49.0627 0.0000 0.0000 92.9465 0.0000 0.0000 -43.8838 0.0000
0.0000 62.0876 0.0000 0.0000 0.0000 0.0000 0.0000 6.0000 0.0000 0.0000 2.0000 0.0000 0.0000 0.0000 0.0000 0.0000 0.0000 0.0000 0.0000 -40.0000 0.0000 0.0000 -15.0000 0.0000 0.0000 0.0000 0.0000 0.0000 -40.0000 0.0000 0.0000 -15.0000 0.0000 0.0000 0.0000 0.0000 0.0000 -49.3202 0.0000 0.0000 93.4496 0.0000 0.0000 -44.1295 0.0000 0.0000 -49.3202 0.0000 0.0000 93.4496 0.0000 0.0000 -44.1295 0.0000
0.0000 62.0000 0.0000 0.0000 0.0000 0.0000 0.0000 0.0000 0.0000 0.0000 2.0000 0.0000 0.0000 0.0000 0.0000 0.0000 0.0000 0.0000 0.0000 -10.0000 0.0000 0.0000 -15.0000 0.0000 0.0000 0.0000 0.0000 0.0000 -10.0000 0.0000 0.0000 -15.0000 0.0000 0.0000 0.0000 0.0000 0.0000 -49.4061 0.0000 0.0000 93.6175 0.0000 0.0000 -44.2114 0.0000 0.0000 -49.4061 0.0000 0.0000 93.6175 0.0000 0.0000 -44.2114 0.0000
0.0000 67.3333 0.0000 0.0000 0.0000 0.0000 0.0000 0.0000 0.0000 0.0000 2.0000 0.0000 0.0000 0.0000 0.0000 0.0000 0.0000 0.0000 0.0000 -10.0000 0.0000 0.0000 -15.0000 0.0000 0.0000 0.0000 0.0000 0.0000 -10.0000 0.0000 0.0000 -15.0000 0.0000 0.0000 0.0000 0.0000 0.0000 -43.9599 0.0000 0.0000 82.9262 0.0000 0.0000 -38.9663 0.0000 0.0000 -43.9599 0.0000 0.0000 82.9262 0.0000 0.0000 -38.9663 0.0000
0.0000 72.6667 0.0000 0.0000 0.0000 0.0000 0.0000 0.0000 0.0000 0.0000 2.0000 0.0000 0.0000 0.0000 0.0000 0.0000 0.0000 0.0000 0.0000 -10.0000 0.0000 0.0000 -15.0000 0.0000 0.0000 0.0000 0.0000 0.0000 -10.0000 0.0000 0.0000 -15.0000 0.0000 0.0000 0.0000 0.0000 0.0000 -37.9149 0.0000 0.0000 70.9543 0.0000 0.0000 -33.0394 0.0000 0.0000 -37.9149 0.0000 0.0000 70.9543 0.0000 0.0000 -33.0394 0.0000
0.0000 78.0000 0.0000 0.0000 0.0000 0.0000 0.0000 0.0000 0.0000 0.0000 2.0000 0.0000 0.0000 0.0000 0.0000 0.0000 0.0000 0.0000 0.0000 60.0000 0.0000 0.0000 -15.0000 0.0000 0.0000 0.0000 0.0000 0.0000 60.0000 0.0000 0.0000 -15.0000 0.0000 0.0000 0.0000 0.0000 0.0000 -60.0000 0.0000 0.0000 80.0000 0.0000 0.0000 -20.0000 0.0000 0.0000 -60.0000 0.0000 0.0000 80.0000 0.0000 0.0000 -20.0000 0.0000
0.0000 85.5420 0.0000 0.0000 0.0000 0.0000 0.0000 0.0000 0.0000 0.0000 2.0000 0.0000 0.0000 0.0000 0.0000 0.0000 0.0000 0.0000 0.0000 60.0000 0.0000 0.0000 -15.0000 0.0000 0.0000 0.0000 0.0000 0.0000 60.0000 0.0000 0.0000 -15.0000 0.0000 0.0000 0.0000 0.0000 0.0000 -60.0000 0.0000 0.0000 80.0000 0.0000 0.0000 -20.0000 0.0000 0.0000 -60.0000 0.0000 0.0000 80.0000 0.0000 0.0000 -20.0000 0.0000
